{"title":"Veloce Come il Vento (2016) - 1080p x265 HEVC - ITA (ENG SUBS) [","uid":15519897,"size":1277723329,"categoryP":"video","categoryS":"hd___movies","magnet":"?xt=urn:btih:00428b1c9544964e498a4a6b44c72b2be7b04c5d&amp;dn=Veloce+Come+il+Vento+%282016%29+-+1080p+x265+HEVC+-+ITA+%28ENG+SUBS%29+%5B&amp;tr=udp%3A%2F%2Ftracker.leechers-paradise.org%3A6969&amp;tr=udp%3A%2F%2Fzer0day.ch%3A1337&amp;tr=udp%3A%2F%2Fopen.demonii.com%3A1337&amp;tr=udp%3A%2F%2Ftracker.coppersurfer.tk%3A6969&amp;tr=udp%3A%2F%2Fexodus.desync.com%3A6969","seeders":33,"leechers":2,"uploader":"BRSHNKV","files":2,"time":1470738051,"description":"Giulia is a young promise of GT racing. When her life falls apart, her only hope is her brother, a drug addict and former rally champion. \r\n\r\n\r\nFormat                                   : MPEG-4\r\nFormat profile                           : Base Media / Version 2\r\nCodec ID                                 : mp42\r\nFile size                                : 1.19 GiB\r\nDuration                                 : 1h 58mn\r\nOverall bit rate mode                    : Variable\r\nOverall bit rate                         : 1 442 Kbps\r\nMovie name                               : Veloce Come il Vento 1080p x265 [BRSHNKV]\r\nEncoded date                             : UTC 2016-08-08 19:45:42\r\nTagged date                              : UTC 2016-08-08 19:45:42\r\nWriting application                      : HandBrake 20160211184813-ffd8cb1-master 2016021301\r\n\r\nVideo\r\nID                                       : 1\r\nFormat                                   : HEVC\r\nFormat/Info                              : High Efficiency Video Coding\r\nFormat profile                           : Main   @Main\r\nCodec ID                                 : hev1\r\nCodec ID/Info                            : High Efficiency Video Coding\r\nDuration                                 : 1h 58mn\r\nBit rate                                 : 1 100 Kbps\r\nWidth                                    : 1 920 pixels\r\nHeight                                   : 800 pixels\r\nDisplay aspect ratio                     : 2.40:1\r\nFrame rate mode                          : Constant\r\nFrame rate                               : 24.000 fps\r\nColor space                              : YUV\r\nChroma subsampling                       : 4:2:0\r\nBit depth                                : 10 bits\r\nBits/(Pixel*Frame)                       : 0.030\r\nStream size                              : 930 MiB (76%)\r\nWriting library                          : x265 1.9:[Mac OS X][clang 7.0.2][64 bit] 10bit\r\nEncoded date                             : UTC 2016-08-08 19:45:42\r\nTagged date                              : UTC 2016-08-08 19:45:42\r\nColor range                              : Limited\r\nColor primaries                          : BT.709\r\nTransfer characteristics                 : BT.709\r\nMatrix coefficients                      : BT.709\r\n\r\nAudio #1\r\nID                                       : 2\r\nFormat                                   : AAC\r\nFormat/Info                              : Advanced Audio Codec\r\nFormat profile                           : LC\r\nCodec ID                                 : 40\r\nDuration                                 : 1h 58mn\r\nBit rate mode                            : Variable\r\nBit rate                                 : 168 Kbps\r\nChannel(s)                               : 2 channels\r\nChannel positions                        : Front: L R\r\nSampling rate                            : 48.0 KHz\r\nCompression mode                         : Lossy\r\nStream size                              : 142 MiB (12%)\r\nTitle                                    : Stereo / Stereo\r\nLanguage                                 : Italian\r\nEncoded date                             : UTC 2016-08-08 19:45:42\r\nTagged date                              : UTC 2016-08-08 19:45:42\r\n\r\nAudio #2\r\nID                                       : 3\r\nFormat                                   : AAC\r\nFormat/Info                              : Advanced Audio Codec\r\nFormat profile                           : LC\r\nCodec ID                                 : 40\r\nDuration                                 : 1h 58mn\r\nBit rate mode                            : Variable\r\nBit rate                                 : 165 Kbps\r\nChannel(s)                               : 2 channels\r\nChannel positions                        : Front: L R\r\nSampling rate                            : 48.0 KHz\r\nCompression mode                         : Lossy\r\nStream size                              : 140 MiB (11%)\r\nTitle                                    : Stereo / Stereo\r\nLanguage                                 : Italian\r\nEncoded date                             : UTC 2016-08-08 19:45:42\r\nTagged date                              : UTC 2016-08-08 19:45:42\r\n\r\nText\r\nID                                       : 4\r\nFormat                                   : Timed Text\r\nMuxing mode                              : sbtl\r\nCodec ID                                 : tx3g\r\nDuration                                 : 1h 51mn\r\nBit rate mode                            : Variable\r\nBit rate                                 : 51 bps\r\nStream size                              : 42.0 KiB (0%)\r\nLanguage                                 : English\r\nEncoded date                             : UTC 2016-08-08 19:45:42\r\nTagged date                              : UTC 2016-08-08 19:45:42","torrent":{"xt":"urn:btih:00428b1c9544964e498a4a6b44c72b2be7b04c5d","amp;dn":"Veloce+Come+il+Vento+%282016%29+-+1080p+x265+HEVC+-+ITA+%28ENG+SUBS%29+%5B","amp;tr":["udp%3A%2F%2Ftracker.leechers-paradise.org%3A6969","udp%3A%2F%2Fzer0day.ch%3A1337","udp%3A%2F%2Fopen.demonii.com%3A1337","udp%3A%2F%2Ftracker.coppersurfer.tk%3A6969","udp%3A%2F%2Fexodus.desync.com%3A6969"],"infoHash":"00428b1c9544964e498a4a6b44c72b2be7b04c5d","infoHashBuffer":{"type":"Buffer","data":[0,66,139,28,149,68,150,78,73,138,74,107,68,199,43,43,231,176,76,93]},"announce":[],"urlList":[]}}